<svg id="Layer_1" data-name="Layer 1" xmlns="http://www.w3.org/2000/svg" xmlns:xlink="http://www.w3.org/1999/xlink" viewBox="0 0 791.96 324.06">
  <defs>
    <style>
      .cls-1 {
        fill: none;
      }

      .cls-2 {
        clip-path: url(#clip-path);
      }

      .cls-3 {
        clip-path: url(#clip-path-2);
      }

      .cls-17, .cls-18, .cls-19, .cls-4 {
        fill: #fff;
      }

      .cls-5 {
        clip-path: url(#clip-path-3);
      }

      .cls-6 {
        fill: #5f3c75;
      }

      .cls-7 {
        clip-path: url(#clip-path-5);
      }

      .cls-8 {
        fill: #b79ecb;
      }

      .cls-9 {
        clip-path: url(#clip-path-7);
      }

      .cls-10 {
        fill: #ebebeb;
      }

      .cls-11 {
        clip-path: url(#clip-path-9);
      }

      .cls-12 {
        fill: #77558c;
      }

      .cls-13 {
        clip-path: url(#clip-path-11);
      }

      .cls-14 {
        fill: #835ba5;
      }

      .cls-15 {
        clip-path: url(#clip-path-13);
      }

      .cls-16 {
        fill: #d8d9d8;
      }

      .cls-17, .cls-18 {
        font-size: 23.64px;
      }

      .cls-17, .cls-18, .cls-19 {
        font-family: Avenir;
      }

      .cls-18 {
        stroke: #bcbec0;
        stroke-miterlimit: 10;
      }

      .cls-19 {
        font-size: 48px;
      }

      .cls-20 {
        clip-path: url(#clip-path-15);
      }

      .cls-21 {
        fill: #f0efef;
      }

      .cls-22 {
        clip-path: url(#clip-path-16);
      }

      .cls-23 {
        isolation: isolate;
      }

      .cls-24 {
        clip-path: url(#clip-path-17);
      }

      .cls-25 {
        clip-path: url(#clip-path-18);
      }

      .cls-26 {
        fill: #c4b0d6;
      }

      .cls-27 {
        clip-path: url(#clip-path-19);
      }

      .cls-28 {
        clip-path: url(#clip-path-20);
      }

      .cls-29 {
        clip-path: url(#clip-path-21);
      }

      .cls-30 {
        clip-path: url(#clip-path-22);
      }

      .cls-31 {
        clip-path: url(#clip-path-23);
      }

      .cls-32 {
        clip-path: url(#clip-path-24);
      }

      .cls-33 {
        clip-path: url(#clip-path-25);
      }

      .cls-34 {
        clip-path: url(#clip-path-26);
      }

      .cls-35 {
        clip-path: url(#clip-path-27);
      }

      .cls-36 {
        clip-path: url(#clip-path-28);
      }

      .cls-37 {
        clip-path: url(#clip-path-29);
      }

      .cls-38 {
        clip-path: url(#clip-path-30);
      }

      .cls-39 {
        clip-path: url(#clip-path-31);
      }

      .cls-40 {
        fill: #ee3724;
      }
    </style>
    <clipPath id="clip-path" transform="translate(-27.56 -13.94)">
      <rect class="cls-1" x="30.84" y="19.46" width="346.74" height="312.59"/>
    </clipPath>
    <clipPath id="clip-path-2" transform="translate(-27.56 -13.94)">
      <rect class="cls-1" x="-24.32" y="-27.83" width="866.19" height="647.51"/>
    </clipPath>
    <clipPath id="clip-path-3" transform="translate(-27.56 -13.94)">
      <rect class="cls-1" x="31.5" y="19.46" width="177.31" height="92.59"/>
    </clipPath>
    <clipPath id="clip-path-5" transform="translate(-27.56 -13.94)">
      <rect class="cls-1" x="31.5" y="111.39" width="172.71" height="92.59"/>
    </clipPath>
    <clipPath id="clip-path-7" transform="translate(-27.56 -13.94)">
      <rect class="cls-1" x="31.5" y="203.33" width="172.71" height="92.59"/>
    </clipPath>
    <clipPath id="clip-path-9" transform="translate(-27.56 -13.94)">
      <rect class="cls-1" x="204.21" y="19.46" width="172.71" height="92.59"/>
    </clipPath>
    <clipPath id="clip-path-11" transform="translate(-27.56 -13.94)">
      <rect class="cls-1" x="204.21" y="110.74" width="172.71" height="92.59"/>
    </clipPath>
    <clipPath id="clip-path-13" transform="translate(-27.56 -13.94)">
      <rect class="cls-1" x="204.21" y="203.33" width="172.71" height="92.59"/>
    </clipPath>
    <clipPath id="clip-path-15" transform="translate(-27.56 -13.94)">
      <path class="cls-1" d="M617.57,273.8v0M577.74,314h-0.53a44.36,44.36,0,0,1-5.5-.21c-0.86-.11-1.71-0.13-2.6-0.3l-2.68-.55a20.75,20.75,0,0,1-2.67-.73l-1.34-.41-0.67-.21-0.65-.27-2.62-1.1c-0.88-.37-1.69-0.89-2.54-1.33l-1.27-.69c-0.41-.25-0.8-0.54-1.21-0.81-0.8-.56-1.63-1.07-2.41-1.67a45.51,45.51,0,0,1-8.37-8.52c-0.56-.84-1.12-1.69-1.65-2.56l-0.39-.66-0.33-.69-0.65-1.38L539,290.48c-0.22-.46-0.37-0.95-0.57-1.42-0.35-1-.76-1.91-1.07-2.88A45.91,45.91,0,0,1,535.39,274l0.13-3.13a20.53,20.53,0,0,1,.32-3.09l0.22-1.51,0.11-.76,0.19-.75,0.75-3c0.29-1,.68-1.95,1-2.92,0.18-.48.33-1,0.55-1.44l0.67-1.39L540,254.6l0.33-.69,0.4-.66,1.62-2.61a43.55,43.55,0,0,1,8.25-8.83c0.78-.62,1.62-1.16,2.42-1.74,0.41-.28.8-0.58,1.21-0.85l1.28-.73c0.86-.47,1.67-1,2.56-1.42l2.65-1.19a40,40,0,0,1,10.91-2.79,41.08,41.08,0,0,1,5.44-.3h0.57l0.7,0.05,1.39,0.11c0.91,0.09,1.89.1,2.72,0.26l2.48,0.47c0.41,0.08.82,0.13,1.22,0.24l1.22,0.36,2.4,0.69c0.78,0.28,1.53.61,2.29,0.9a41.94,41.94,0,0,1,8.21,4.47,40.82,40.82,0,0,1,11,11.76c0.59,1,1.14,2.06,1.63,3.07s0.84,2,1.29,2.95,0.71,1.89,1,2.76l0.48,1.29c0.13,0.43.23,0.86,0.34,1.27l0.62,2.34c0.17,0.74.24,1.45,0.36,2.1l0.29,1.82c0.08,0.56.06,1.07,0.09,1.53l0.12,2.73-0.22,2.94c0,0.48,0,1.1-.15,1.63l-0.35,1.71c-0.14.62-.21,1.27-0.42,2l-0.71,2.29a42.79,42.79,0,0,1-5.39,10.79,43.58,43.58,0,0,1-10.83,11.21,42.47,42.47,0,0,1-17.27,7c-0.83.17-1.68,0.18-2.53,0.28l-1.29.12-0.65.06c-0.09,0,0,0,0,0h0Zm-0.08-85.43h-0.28l-0.37,0a45.15,45.15,0,0,0-5.93.65,45.78,45.78,0,0,0-11.68,3.62l-2.79,1.41c-0.93.47-1.79,1.09-2.68,1.64l-1.33.85c-0.43.3-.84,0.64-1.26,1-0.83.66-1.69,1.28-2.49,2l-2.33,2.19-0.58.55-0.53.6-1.06,1.2-1.07,1.2c-0.36.4-.65,0.86-1,1.28-0.63.87-1.3,1.72-1.89,2.62A50.92,50.92,0,0,0,534.77,261l-0.85,3.17-0.21.8-0.14.82-0.27,1.65a23.15,23.15,0,0,0-.4,3.26L532.72,274a49.28,49.28,0,0,0,1.83,13c0.31,1.05.72,2.07,1.08,3.11,0.19,0.51.35,1,.58,1.54l0.7,1.49,0.73,1.47,0.37,0.73,0.43,0.7c0.58,0.93,1.11,1.87,1.65,2.83a49.16,49.16,0,0,0,8.32,10c0.8,0.72,1.67,1.36,2.5,2,0.42,0.33.83,0.68,1.27,1l1.34,0.88c0.9,0.57,1.76,1.22,2.7,1.72L559,316l0.7,0.37,0.73,0.3,1.46,0.6a24.65,24.65,0,0,0,2.95,1.11l3,0.9c1,0.28,2.09.44,3.13,0.65a45.73,45.73,0,0,0,5.88.73l0.35,0,0.18,0h1.11l1.51,0c1,0,2,0,3-.09l2.94-.33c0.49-.06,1-0.1,1.46-0.19l1.43-.31,2.82-.61c0.92-.26,1.82-0.57,2.71-0.86a48.28,48.28,0,0,0,9.88-4.65A45.07,45.07,0,0,0,618,300.32a42.49,42.49,0,0,0,5.72-13.62l0.61-2.84c0.17-.9.24-1.81,0.35-2.62L624.9,279c0.08-.69,0-1.19.08-1.71,0.05-2,.08-3.07.08-3.07V274s-0.07-1.16-.19-3.33c0-.54,0-1.15-0.14-1.81l-0.33-2.16c-0.13-.78-0.21-1.62-0.41-2.5l-0.7-2.79c-0.13-.49-0.25-1-0.4-1.51l-0.57-1.54c-0.42-1-.75-2.17-1.29-3.27s-1.11-2.24-1.78-3.37-1.54-2.2-2.29-3.38a46,46,0,0,0-23.1-17.3c-0.87-.28-1.74-0.59-2.63-0.85l-2.74-.62-1.38-.31c-0.47-.09-1-0.13-1.44-0.2l-2.92-.35c-1-.11-1.86-0.07-2.8-0.11l-1.4,0-0.7,0h-0.2"/>
    </clipPath>
    <clipPath id="clip-path-16" transform="translate(-27.56 -13.94)">
      <path class="cls-1" d="M674.31,230.44c-0.13,1-.47,1.91-0.71,3.1s-0.73,2.5-1.08,3.94-1,3-1.64,4.52a47.86,47.86,0,0,1-2.22,4.81c-0.45.79-.86,1.62-1.35,2.42l-1.54,2.36-1.7,2.29c-0.63.71-1.24,1.44-1.85,2.17s-1.35,1.34-2,2l-2.12,1.86-2.2,1.67-2.27,1.48a45.14,45.14,0,0,1-4.57,2.38c-0.37.17-.75,0.36-1.1,0.51l-1.12.43c-0.74.27-1.45,0.53-2.15,0.76a59.44,59.44,0,0,1-7,1.74l-2.77.49,0,4.73a28.64,28.64,0,0,0,3.09.34,33.8,33.8,0,0,0,3.6.06,35.32,35.32,0,0,0,4.7-.43,30.38,30.38,0,0,0,5.51-1.32l1.46-.48a10.64,10.64,0,0,0,1.48-.56c1-.45,2-0.85,3-1.37s2-1.09,2.94-1.69l2.84-2,2.68-2.29c0.84-.83,1.65-1.69,2.48-2.54s1.51-1.81,2.24-2.73l2-2.87c0.58-1,1.13-2,1.69-3s1-2,1.43-3a46.63,46.63,0,0,0,2.06-5.88l0.4-1.4c0.12-.46.19-0.93,0.29-1.38l0.5-2.62c0.11-.85.22-1.66,0.29-2.43s0.16-1.5.18-2.21,0.06-1.36.07-2c0-.3,0-0.59,0-0.87l0-.74c-0.09-1.87-.17-2.95-0.17-2.95l-4.73-.31s-0.23,1.05-.56,2.9"/>
    </clipPath>
    <clipPath id="clip-path-17" transform="translate(-27.56 -13.94)">
      <rect class="cls-1" x="623.68" y="217" width="67" height="68"/>
    </clipPath>
    <clipPath id="clip-path-18" transform="translate(-27.56 -13.94)">
      <rect class="cls-1" x="634.68" y="227" width="46" height="48"/>
    </clipPath>
    <clipPath id="clip-path-19" transform="translate(-27.56 -13.94)">
      <path class="cls-1" d="M649.3,291.61h0Zm0,0h0Zm0,0h0Zm0.12,0h0M650.34,279l-0.92,0-0.74,0-0.66.05a33.15,33.15,0,0,0-9.36,2.32,25.83,25.83,0,0,0-4.38,2.29l-1,.71c-0.33.23-.75,0.58-1.11,0.86a15,15,0,0,0-1.63,1.51,17.41,17.41,0,0,0-4.65,8.94,50.2,50.2,0,0,0-.9,7c-0.08,1-.11,2-0.16,2.94,0,0.46,0,.91,0,1.34v0.54c0,0.19,0,.17,0,0.16s0,0,0,0v0.08c0,0.21,0,.42,0,0.63l0.1,4.26c0.09,2.36.2,3.72,0.2,3.72l4.73,0.62s0.46-1.28,1.16-3.54l1.2-4.09,1.57-5.07c0.58-1.86,1.19-3.86,1.94-5.61a7.36,7.36,0,0,1,2.37-3.44,8.41,8.41,0,0,1,1.27-.9c0.16-.08.22-0.14,0.44-0.25l0.59-.31a20.56,20.56,0,0,1,2.65-1.05,26.49,26.49,0,0,1,6.12-1.12h1.53l0.58,0,0.7,0.07a19,19,0,0,1,2.77.58,49.49,49.49,0,0,1,6.16,2.38l6.39,2.79c2,0.86,3.86,1.71,5.6,2.5l4.77,2.22,3.72,1.77,2.45,1.14c0.57,0.27.89,0.4,0.89,0.4l3.1-3.62s-0.19-.3-0.58-0.84-1-1.33-1.74-2.28a54.82,54.82,0,0,0-7.25-7.19,64.47,64.47,0,0,0-5.5-4.07c-2-1.33-4.07-2.56-6.39-3.85a41.53,41.53,0,0,0-8.06-3.51,26.71,26.71,0,0,0-5-1l-1.29-.11-1.42,0h-0.14Z"/>
    </clipPath>
    <clipPath id="clip-path-20" transform="translate(-27.56 -13.94)">
      <rect class="cls-1" x="613.68" y="268" width="85" height="60"/>
    </clipPath>
    <clipPath id="clip-path-21" transform="translate(-27.56 -13.94)">
      <rect class="cls-1" x="623.68" y="279" width="64" height="38"/>
    </clipPath>
    <clipPath id="clip-path-22" transform="translate(-27.56 -13.94)">
      <path class="cls-1" d="M689.17,269.69h0l0,0Zm-0.34-.3h0m0,0h0m0,0h0Zm55.27-4.64a0.15,0.15,0,0,1,.08-0.06c0.11,0,.06,0,0.13,0s0,0,0,0l-0.09.07-0.16.08,0.06-.09v0Zm-54,2.52a23.07,23.07,0,0,1,3.2-5.45,36.76,36.76,0,0,1,6-6.11,38.71,38.71,0,0,1,8.29-5.12,30.57,30.57,0,0,1,4.72-1.65c0.41-.09.81-0.22,1.23-0.29l1.24-.22,1.06-.14,0.27,0,0.43,0,0.85,0a26,26,0,0,1,10.69,2,35.08,35.08,0,0,1,10.28,6.55,25,25,0,0,1,3.91,4.52,12.58,12.58,0,0,1,1.21,2.26l0.17,0.48,0.12,0.41a2,2,0,0,0,.07.29,0.17,0.17,0,0,0,0,.07l0,0a0.49,0.49,0,0,0,0-.09,0.6,0.6,0,0,1,.16-0.21c0.07-.07,0,0,0,0.11l-0.1.2,0,0.07,0.05,0-0.06.1c-0.09.14-.19,0.29-0.08,0.11l0-.05,0.06-.13a9.09,9.09,0,0,1-2.17.46c-2.09.26-4.45,0.35-6.73,0.46-4.59.21-9.07,0.47-13.27,0.84l-11.85,1.12-10,.89c-3,.27-5.61.58-7.65,0.78a26.41,26.41,0,0,1-2.76.16c0,0.16,0,.26,0,0.29s0,0-.05,0l0,0-0.05-.08a0.28,0.28,0,0,0-.14-0.09l0,0,0.05,0.05,0,0-0.09-.08,0,0-0.15-.09a0.44,0.44,0,0,1-.32-0.09h0s0,0,0,0h0l0.1,0,0.18,0.06,0,0H689l-0.17-.15,0.17,0.15h0l0.1,0.09,0,0-0.12-.1,0.46,0a8.26,8.26,0,0,1,.6-2.32m27-32.26h-1.28l-0.57,0c-0.76.06-1.55,0.11-2.29,0.2l-2,.34c-0.68.12-1.33,0.3-2,.45a34.76,34.76,0,0,0-7.26,2.84,38.34,38.34,0,0,0-10.63,8.53,45.11,45.11,0,0,0-6.3,9.25,33.77,33.77,0,0,0-3.07,8.33,13.91,13.91,0,0,0,0,7,6.49,6.49,0,0,0,.58,1.38l0.31,0.55,0.35,0.46a9.9,9.9,0,0,0,.69.79l0.36,0.31,0.37,0.25,0.1,0.07L684.7,276a8.44,8.44,0,0,0,.83.43l0.49,0.2,0.26,0.09,0.18,0,0.79,0.15a16.22,16.22,0,0,0,6.18-.68l7.42-1.91a92.45,92.45,0,0,1,9.62-1.86,102.25,102.25,0,0,1,11.57-.8c4.12-.09,8.44.05,13,0.37,2.28,0.14,4.54.37,7.13,0.44h1c0.34,0,.72,0,1.08-0.06l0.55,0,0.63-.1,0.63-.11,0.32-.06,0.37-.12,0.74-.25a3.71,3.71,0,0,0,.76-0.35,6.73,6.73,0,0,0,1.54-1.08c0.24-.23.47-0.46,0.69-0.71l0.16-.18,0.29-.43,0.13-.18,0.13-.18a1.49,1.49,0,0,0,.17-0.29,10.38,10.38,0,0,0,.46-1.05,9.67,9.67,0,0,0,.55-3.21c0-.45,0-0.93-0.07-1.37s-0.11-.86-0.19-1.27a20.43,20.43,0,0,0-1.42-4.4,34.09,34.09,0,0,0-4.44-7.22,40.94,40.94,0,0,0-12.71-10.61A34.77,34.77,0,0,0,717.25,235H717.1Z"/>
    </clipPath>
    <clipPath id="clip-path-23" transform="translate(-27.56 -13.94)">
      <rect class="cls-1" x="670.68" y="224" width="92" height="64"/>
    </clipPath>
    <clipPath id="clip-path-24" transform="translate(-27.56 -13.94)">
      <rect class="cls-1" x="680.68" y="235" width="72" height="43"/>
    </clipPath>
    <clipPath id="clip-path-25" transform="translate(-27.56 -13.94)">
      <path class="cls-1" d="M619,227.37l1.37,4c0.48,1.32.92,3,1.45,4.89,0.25,1,.59,2,0.81,3.11l0.76,3.57a94.68,94.68,0,0,1,1.84,18.35,71.92,71.92,0,0,1-3.9,23.21,53,53,0,0,1-6.05,11.76c-0.62,1-1.4,1.8-2.1,2.72-0.37.44-.69,0.92-1.1,1.33l-1.22,1.24-1.22,1.26-0.27.28,0,0,0,0-0.05,0-0.09.08-0.18.15-0.71.62c-0.47.4-1,.86-1.42,1.21l-1.38,1.05a54.43,54.43,0,0,1-13.05,7,60.06,60.06,0,0,1-7.36,2.28c-0.62.15-1.26,0.29-1.85,0.4s-1.29.21-1.88,0.29c-1.28.17-2.59,0.31-3.9,0.39a50,50,0,0,1-15.68-1.31,31.92,31.92,0,0,1-13.58-7.1,37.05,37.05,0,0,1-8.85-13.05,89.09,89.09,0,0,1-4.79-16.27c-0.33-1.44-.65-2.91-1-4.45-0.19-.78-0.41-1.57-0.69-2.44A13.13,13.13,0,0,0,531.5,269a7.31,7.31,0,0,0-.91-1.15,5.87,5.87,0,0,0-.76-0.67l-0.49-.33a6.61,6.61,0,0,0-.61-0.32,5.77,5.77,0,0,0-1.42-.43,5.63,5.63,0,0,0-.76-0.07,2.29,2.29,0,0,0-.64,0l-0.38,0-0.14,0a6.39,6.39,0,0,0-.84.22,5.49,5.49,0,0,0-.88.39c-0.2.11-.39,0.23-0.57,0.36a6.71,6.71,0,0,0-2.16,2.62,11.85,11.85,0,0,0-.68,1.75,36.43,36.43,0,0,0-1,5.05c-0.44,3-.77,5.9-1.23,8.7a80,80,0,0,1-1.7,8.14,38.53,38.53,0,0,1-6.5,13.88,23.8,23.8,0,0,1-5.16,4.91l-0.86.61-0.68.4-0.68.41-0.78.41c-0.52.28-1,.55-1.6,0.78s-1.09.49-1.65,0.69a35.69,35.69,0,0,1-7,1.86c-1.2.18-2.4,0.34-3.58,0.41-0.59,0-1.19.06-1.76,0.07h-1.25l-0.28,0a38.54,38.54,0,0,1-6.84-1.3,44.35,44.35,0,0,1-6.5-2.41l-1.52-.75-1.48-.81c-0.5-.26-1-0.57-1.43-0.86l-0.7-.44h0l0.08,0.06,0,0-0.19-.13,0.08,0-0.11-.08-0.37-.28-1.49-1.11a9.78,9.78,0,0,1-1.32-1.07c-0.68-.7-1.38-1.28-2.07-2a44.78,44.78,0,0,1-7-10.22c-3.74-7.29-5.69-14.83-7.27-21.53S443.85,262,443.05,257c-0.18-1.26-.4-2.46-0.59-3.59L442,250.2c-0.32-2-.59-3.7-0.77-5.09-0.42-2.79-.75-4.3-0.75-4.3l-1-.09s-0.51,1.45-1.27,4.23q-0.29,1-.6,2.33L437,250.1c-0.18,1-.39,2.13-0.57,3.31s-0.29,2.44-.41,3.78a81.76,81.76,0,0,0,.44,19.45c0.08,0.95.3,1.89,0.48,2.85l0.56,2.94c0.43,2,1,4,1.59,6.07l1.07,3.11c0.35,1.05.73,2.11,1.19,3.16l1.35,3.2c0.5,1.07,1.06,2.13,1.6,3.21a55,55,0,0,0,8.79,12.57c1,1,2.12,2,3.2,3a14.38,14.38,0,0,0,1.55,1.24l1.49,1.11,0.38,0.28,0.19,0.14,0.34,0.24,0.11,0.07,0.89,0.55c0.6,0.36,1.18.75,1.8,1.07l1.86,1,1.91,0.93a54.36,54.36,0,0,0,8.09,3,48.43,48.43,0,0,0,8.81,1.61l0.72,0,0.6,0h1.18c0.77,0,1.54-.05,2.3-0.11,1.52-.1,3-0.3,4.55-0.54a45.81,45.81,0,0,0,9-2.46,35.65,35.65,0,0,0,15.61-11.65,48.14,48.14,0,0,0,8-17.5,84.92,84.92,0,0,0,1.68-8.58c-0.59-2.06-1.11-4.12-1.6-6.14-0.35-1.45-.69-2.88-1-4.22-0.18-.66-0.36-1.3-0.55-1.85a6.73,6.73,0,0,0-.37-0.92l0,0,0,0a1.75,1.75,0,0,0,.2.24,2.92,2.92,0,0,0,.35.3l0.26,0.17a3.31,3.31,0,0,0,.36.19,3.83,3.83,0,0,0,1.37.31,0.74,0.74,0,0,0,.41,0l0.33,0-0.14,0a3.63,3.63,0,0,0,.57-0.13,4.29,4.29,0,0,0,.63-0.27,2.34,2.34,0,0,0,.34-0.21,2.56,2.56,0,0,0,.82-0.87l-0.11.33a30.22,30.22,0,0,0-.64,3.67c-0.36,3-.71,6.19-1.19,9.41a79.59,79.59,0,0,0,4.16,11.56,45.38,45.38,0,0,0,11.32,15.65l0.94,0.79,1,0.8,0.94,0.68,1,0.66c0.69,0.44,1.38.89,2.08,1.3l2.16,1.11a41.59,41.59,0,0,0,9,3.13,55.38,55.38,0,0,0,18.11.92c1.47-.15,2.92-0.35,4.38-0.6,0.77-.14,1.34-0.23,2.2-0.43s1.45-.35,2.16-0.55a66.86,66.86,0,0,0,8.09-2.83,62.8,62.8,0,0,0,7.49-3.75,54.87,54.87,0,0,0,6.8-4.65l1.61-1.34c0.54-.44.94-0.87,1.41-1.31l0.68-.65,0.41-.39,0.33-.37L615,305.4l1.31-1.48c0.43-.49.78-1,1.17-1.56,0.74-1.06,1.56-2.06,2.2-3.15a57.91,57.91,0,0,0,6-13.21,72.55,72.55,0,0,0,2.86-24.74,90.71,90.71,0,0,0-3-18.77l-1-3.58c-0.31-1.13-.73-2.15-1.05-3.12-0.67-1.93-1.24-3.57-1.81-4.84L620,227Z"/>
    </clipPath>
    <clipPath id="clip-path-26" transform="translate(-27.56 -13.94)">
      <rect class="cls-1" x="430.68" y="222" width="203" height="111"/>
    </clipPath>
    <clipPath id="clip-path-27" transform="translate(-27.56 -13.94)">
      <rect class="cls-1" x="434.68" y="227" width="195" height="101"/>
    </clipPath>
    <clipPath id="clip-path-28" transform="translate(-27.56 -13.94)">
      <path class="cls-1" d="M725.39,290.7h0m-36.47-5.13s0.11,0.24.35,0.67L689.7,287c0.08,0.16.18,0.33,0.28,0.5l0.43,0.59,1,1.4c0.4,0.48.83,0.94,1.3,1.47a21,21,0,0,0,1.59,1.55,20.47,20.47,0,0,0,1.89,1.58,23.42,23.42,0,0,0,2.18,1.54,25.14,25.14,0,0,0,2.45,1.46,26.81,26.81,0,0,0,2.69,1.33,31.25,31.25,0,0,0,2.91,1.16c1,0.38,2,.66,3.09,1s2.14,0.51,3.23.73,2.21,0.36,3.34.46,2.26,0.19,3.4.2c0.57,0,1.14,0,1.71,0l1.71-.09c1.14,0,2.27-.18,3.39-0.33l0.42-.05,0.3,0,0.09,0,0.18,0,0.73-.14,1.45-.29c0.22,0,.51-0.12.8-0.2l0.85-.23,1.68-.48c1-.38,2-0.75,3-1.16s1.9-.86,2.77-1.38a24.84,24.84,0,0,0,2.48-1.55,23.05,23.05,0,0,0,2.17-1.66,25.46,25.46,0,0,0,3.36-3.38,23.87,23.87,0,0,0,2.11-3,18.81,18.81,0,0,0,1.09-2.13c0.22-.52.33-0.85,0.33-0.85l-4.12-2.4-0.45.39c-0.3.27-.79,0.66-1.41,1.14s-1.42,1-2.33,1.6c-0.45.29-1,.56-1.48,0.87s-1.09.59-1.69,0.85a32,32,0,0,1-3.92,1.54c-0.69.27-1.47,0.39-2.2,0.64s-1.56.33-2.33,0.51l-1.12.17-0.56.09a5.51,5.51,0,0,1-.63.08l-1.47.16-0.74.08-0.18,0h-0.08l0.16,0h-0.39a47.86,47.86,0,0,1-5.28,0c-1.78-.07-3.55-0.28-5.29-0.5s-3.45-.57-5.09-0.95c-0.81-.21-1.63-0.36-2.4-0.6s-1.55-.41-2.28-0.66-1.46-.46-2.14-0.71-1.35-.48-2-0.74l-0.93-.36-0.86-.39c-0.57-.26-1.13-0.47-1.61-0.74s-1-.47-1.4-0.69l-1.12-.58-0.5-.27-0.48-.31L693,282.7c-0.41-.26-0.65-0.39-0.65-0.39Z"/>
    </clipPath>
    <clipPath id="clip-path-29" transform="translate(-27.56 -13.94)">
      <rect class="cls-1" x="677.68" y="272" width="83" height="41"/>
    </clipPath>
    <clipPath id="clip-path-30" transform="translate(-27.56 -13.94)">
      <rect class="cls-1" x="688.68" y="282" width="62" height="20"/>
    </clipPath>
    <clipPath id="clip-path-31" transform="translate(-27.56 -13.94)">
      <path class="cls-1" d="M522.11,279.15c0,4.13,2.26,7.48,5,7.48s5-3.35,5-7.48-2.25-7.48-5-7.48-5,3.35-5,7.48"/>
    </clipPath>
  </defs>
  <title>styles</title>
  <g class="cls-2">
    <g class="cls-3">
      <rect class="cls-4" y="2.23" width="353.3" height="319.16"/>
    </g>
  </g>
  <g class="cls-5">
    <g class="cls-3">
      <rect class="cls-6" x="0.66" y="2.23" width="183.88" height="99.16"/>
    </g>
  </g>
  <g class="cls-7">
    <g class="cls-3">
      <rect class="cls-8" x="0.66" y="94.17" width="179.28" height="99.16"/>
    </g>
  </g>
  <g class="cls-9">
    <g class="cls-3">
      <rect class="cls-10" x="0.66" y="186.11" width="179.28" height="99.16"/>
    </g>
  </g>
  <g class="cls-11">
    <g class="cls-3">
      <rect class="cls-12" x="173.37" y="2.23" width="179.28" height="99.16"/>
    </g>
  </g>
  <g class="cls-13">
    <g class="cls-3">
      <rect class="cls-14" x="173.37" y="93.51" width="179.28" height="99.16"/>
    </g>
  </g>
  <g class="cls-15">
    <g class="cls-3">
      <rect class="cls-16" x="173.37" y="186.11" width="179.28" height="99.16"/>
    </g>
  </g>
  <text class="cls-17" transform="translate(40.72 57.39)">#5E3B74</text>
  <text class="cls-17" transform="translate(40.72 153.27)">#B79ECC</text>
  <text class="cls-17" transform="translate(211.46 148.67)">#825AA4</text>
  <text class="cls-17" transform="translate(211.46 241.27)">#D8D8D8</text>
  <text class="cls-17" transform="translate(38.74 241.27)">#EBEBEB</text>
  <text class="cls-17" transform="translate(128.71 308.25)">#FFFFFF</text>
  <text class="cls-18" transform="translate(128.71 308.25)">#FFFFFF</text>
  <text class="cls-17" transform="translate(211.46 57.39)">#76548B</text>
  <text class="cls-19" transform="translate(409.76 40.99)">A<tspan x="33.79" y="0">venir Heavy</tspan><tspan x="0" y="57.6">A</tspan><tspan x="32.06" y="57.6">venir Book</tspan><tspan x="0" y="115.2">14px &amp; 20px</tspan></text>
  <text x="-27.56" y="-13.94"/>  <text x="-27.56" y="-13.94"/>  <g class="cls-20">
    <rect class="cls-21" x="500.16" y="209.59" width="102.35" height="102.19"/>
  </g>
  <g class="cls-22">
    <g class="cls-23">
      <g class="cls-24">
        <g class="cls-25">
          <rect class="cls-26" x="592.1" y="198.38" width="75.38" height="77.45"/>
        </g>
      </g>
    </g>
  </g>
  <g class="cls-27">
    <g class="cls-23">
      <g class="cls-28">
        <g class="cls-29">
          <rect class="cls-26" x="581.87" y="249.78" width="93.5" height="68.56"/>
        </g>
      </g>
    </g>
  </g>
  <g class="cls-30">
    <g class="cls-23">
      <g class="cls-31">
        <g class="cls-32">
          <rect class="cls-26" x="638.39" y="205.82" width="101.66" height="72.47"/>
        </g>
      </g>
    </g>
  </g>
  <g class="cls-33">
    <g class="cls-23">
      <g class="cls-34">
        <g class="cls-35">
          <rect class="cls-26" x="398.12" y="203.06" width="213" height="121"/>
        </g>
      </g>
    </g>
  </g>
  <g class="cls-36">
    <g class="cls-23">
      <g class="cls-37">
        <g class="cls-38">
          <rect class="cls-26" x="646.11" y="253.1" width="91.73" height="50.18"/>
        </g>
      </g>
    </g>
  </g>
  <g class="cls-39">
    <rect class="cls-26" x="489.55" y="252.73" width="20.07" height="24.97"/>
  </g>
  <polygon class="cls-40" points="498.31 260.05 496.2 260.05 498.31 260.05 500.41 260.05 498.31 260.05"/>
</svg>
